<svg xmlns="http://www.w3.org/2000/svg" width="22" height="32" viewBox="0 0 22 32">
    <defs>
        <style>.default-fill {fill-rule: evenodd;}</style>
    </defs>
    <path class="default-fill" d="M193,852a11.14,11.14,0,0,0-11,11.25,11.422,11.422,0,0,0,1.642,5.916l8.732,14.391a0.913,0.913,0,0,0,.779.443h0.007a0.912,0.912,0,0,0,.779-0.456l8.509-14.53A11.432,11.432,0,0,0,204,863.25,11.14,11.14,0,0,0,193,852Zm7.875,16.051-7.736,13.211L185.2,868.178a9.524,9.524,0,0,1-1.379-4.928,9.178,9.178,0,1,1,18.352,0A9.527,9.527,0,0,1,200.875,868.051ZM193,857.625a5.626,5.626,0,1,0,5.5,5.625A5.569,5.569,0,0,0,193,857.625Zm0,9.387a3.764,3.764,0,1,1,3.673-3.762A3.724,3.724,0,0,1,193,867.012Z" transform="translate(-182 -852)"/>
</svg>
