<svg xmlns="http://www.w3.org/2000/svg" width="40" height="40" viewBox="0 0 40 40">
    <path d="M255.379,575H238.62A11.63,11.63,0,0,0,227,586.62v16.758A11.63,11.63,0,0,0,238.62,615h16.759A11.63,11.63,0,0,0,267,603.379V586.62A11.63,11.63,0,0,0,255.379,575Zm8.493,28.375a8.5,8.5,0,0,1-8.493,8.494H238.62a8.5,8.5,0,0,1-8.493-8.493V586.62a8.5,8.5,0,0,1,8.493-8.493h16.759a8.5,8.5,0,0,1,8.493,8.493v16.758ZM247,584.22A10.78,10.78,0,1,0,257.779,595,10.791,10.791,0,0,0,247,584.22Zm0,18.434A7.655,7.655,0,1,1,254.655,595,7.664,7.664,0,0,1,247,602.654ZM257.935,582.5a1.563,1.563,0,1,1-1.562,1.563A1.563,1.563,0,0,1,257.935,582.5Z" transform="translate(-227 -575)"/>
</svg>
