<svg xmlns="http://www.w3.org/2000/svg" width="19" height="30" viewBox="0 0 19 30">
    <path d="M596.26,4184H584.74a3.471,3.471,0,0,1-3.74-3.73v-22.54a3.43,3.43,0,0,1,3.74-3.73h11.483a3.467,3.467,0,0,1,3.74,3.73v2.87L600,4180.27A3.472,3.472,0,0,1,596.26,4184Zm-13.764-3.2a2,2,0,0,0,2.244,1.71h11.5a2.34,2.34,0,0,0,.529,0,2,2,0,0,0,1.715-2.24v-1.36H582.5v1.36A1.96,1.96,0,0,0,582.5,4180.8Zm15.993-3.38v-17.37H582.5v17.37h15.993Zm0.015-20.22a2,2,0,0,0-2.244-1.71H584.74a1.982,1.982,0,0,0-2.244,2.24v0.83H598.5v-0.83A1.959,1.959,0,0,0,598.5,4157.2Zm-9.941,22.65h3.83a0.75,0.75,0,0,1,0,1.5h-3.83A0.75,0.75,0,0,1,588.563,4179.85Z" transform="translate(-581 -4154)"/>
</svg>
