<svg xmlns="http://www.w3.org/2000/svg" width="13" height="21" viewBox="0 0 13 21">
    <defs>
        <style>.default {fill: #848484; fill-rule: evenodd;}</style>
    </defs>
    <path class="default" d="M1367.44,62h-7.88A2.408,2.408,0,0,1,1357,59.39V43.609A2.377,2.377,0,0,1,1359.56,41h7.86a2.4,2.4,0,0,1,2.55,2.609v2.009L1370,59.39A2.4,2.4,0,0,1,1367.44,62Zm-9.42-2.24a1.375,1.375,0,0,0,1.54,1.2h7.87a1.323,1.323,0,0,0,.36,0,1.392,1.392,0,0,0,1.18-1.566V58.435h-10.95V59.39A2.273,2.273,0,0,0,1358.02,59.759Zm10.95-2.368V45.237h-10.95V57.391h10.95Zm0.01-14.151a1.375,1.375,0,0,0-1.54-1.2h-7.88a1.376,1.376,0,0,0-1.54,1.566v0.584h10.96V43.609A2.269,2.269,0,0,0,1368.98,43.24ZM1362.17,59.1h2.63a0.522,0.522,0,0,1,0,1.044h-2.63A0.522,0.522,0,0,1,1362.17,59.1Z" transform="translate(-1357 -41)"/>
</svg>
