<svg xmlns="http://www.w3.org/2000/svg" width="26" height="26" viewBox="0 0 26 26">
  <metadata><?xpacket begin="﻿" id="W5M0MpCehiHzreSzNTczkc9d"?>
<x:xmpmeta xmlns:x="adobe:ns:meta/" x:xmptk="Adobe XMP Core 5.6-c140 79.160451, 2017/05/06-01:08:21        ">
   <rdf:RDF xmlns:rdf="http://www.w3.org/1999/02/22-rdf-syntax-ns#">
      <rdf:Description rdf:about=""/>
   </rdf:RDF>
</x:xmpmeta>
                                                                                                    
                                                                                                    
                                                                                                    
                                                                                                    
                                                                                                    
                                                                                                    
                                                                                                    
                                                                                                    
                                                                                                    
                                                                                                    
                                                                                                    
                                                                                                    
                                                                                                    
                                                                                                    
                                                                                                    
                                                                                                    
                                                                                                    
                                                                                                    
                                                                                                    
                                                                                                    
                           
<?xpacket end="w"?></metadata>
<defs>
    <style>
      .cls-1 {
        fill-rule: evenodd;
      }
    </style>
  </defs>
  <path id="ico" class="cls-1" d="M206.962,1118.94a12.828,12.828,0,1,0,1.038,5.05A12.721,12.721,0,0,0,206.962,1118.94Zm-2.075,10.79a11.455,11.455,0,0,1-4.179,4.17,11.209,11.209,0,0,1-5.729,1.54,11.027,11.027,0,0,1-4.435-.91,11.739,11.739,0,0,1-3.64-2.44,11.47,11.47,0,0,1-2.43-3.65,11.508,11.508,0,0,1,.625-10.17,11.417,11.417,0,0,1,4.165-4.17,11.4,11.4,0,0,1,11.443,0,11.472,11.472,0,0,1,4.18,4.17A11.462,11.462,0,0,1,204.887,1129.73Zm-9.084-5.86v-7.37a0.815,0.815,0,0,0-.824-0.79,0.8,0.8,0,0,0-.782.79v7.49a0.56,0.56,0,0,1,.028.11,0.741,0.741,0,0,0,.213.64l4.251,4.25a0.8,0.8,0,0,0,1.095,0,0.769,0.769,0,0,0,0-1.11Z" transform="translate(-182 -1111)"/>
</svg>
