<svg xmlns="http://www.w3.org/2000/svg" xml:space="preserve" width="556px" height="556px" version="1.1"
     style="shape-rendering:geometricPrecision; text-rendering:geometricPrecision; image-rendering:optimizeQuality; fill-rule:evenodd; clip-rule:evenodd"
     viewBox="0 0 253.77 253.77"
     xmlns:xlink="http://www.w3.org/1999/xlink"><defs>
  <style type="text/css">
   <![CDATA[
    .fil1 {fill:white;fill-rule:nonzero}
    .fil0 {fill:white;fill-rule:nonzero;fill-opacity:0.850980}
   ]]>
  </style>
 </defs>
 <g id="Layer_x0020_1">
  <g id="_62282786144">
   <path class="fil0" d="M93.01 131.86l0.1 48.88 -24.02 -48.88 -11.97 0 0 39.59c0,11.6 -3.89,17.48 -11.57,17.48 -11.48,0 -11.82,-16.69 -11.82,-18.59l0 -38.52 -10.93 0 0 38.9c0,7.47 0,30.2 22.41,30.2 20.13,0 23.14,-19.27 23.14,-30.77l0 -13.41 22.09 42.04 13.25 0 0 -66.92 -10.68 0z"/>
   <polygon class="fil0" points="114.75,198.79 125.69,198.79 125.69,131.88 114.75,131.88 "/>
   <polygon class="fil0" points="220.62,131.77 220.65,180.47 196.72,132.45 196.37,131.75 184.51,131.77 184.51,198.68 195.8,198.68 195.39,156.26 216.95,198.68 230.97,198.68 230.97,131.77 "/>
   <polygon class="fil0" points="123.84,108.11 112.86,119.08 120.34,126.56 131.32,115.58 "/>
   <path class="fil0" d="M154.62 189.71c-13.43,0 -24.32,-10.89 -24.32,-24.32 0,-13.44 10.89,-24.32 24.32,-24.32 13.44,0 24.32,10.88 24.32,24.32 0,13.43 -10.88,24.32 -24.32,24.32zm0 -59.45c-19.48,0 -35.28,15.8 -35.28,35.28 0,19.49 15.8,35.28 35.28,35.28 19.49,0 35.28,-15.79 35.28,-35.28 0,-19.48 -15.79,-35.28 -35.28,-35.28z"/>
   <path class="fil1" d="M25.59 207.95l-2.8 0 0 22.79 2.8 0 0 -22.79zm9.59 6.19l-2.79 0 0 16.6 2.79 0 0 -16.6zm0 -3.01l0 -3.18 -2.79 0 0 3.18 2.79 0zm8.83 11.26c0,-2.12 0.22,-6.22 4.54,-6.22 4.03,0 4.48,4.35 4.48,7.05 0,4.41 -2.76,5.59 -4.54,5.59 -3.05,0 -4.48,-2.76 -4.48,-6.42zm11.68 -8.25l-2.63 0 0 2.35 -0.06 0c-0.67,-0.95 -1.94,-2.82 -4.96,-2.82 -4.41,0 -6.92,3.61 -6.92,8.28 0,3.97 1.65,9.27 7.3,9.27 2.23,0 3.69,-1.05 4.42,-2.22l0 -0.13 0.06 0 0 0.7c0,1.97 0.1,5.84 -4.73,5.84 -0.67,0 -3.24,0 -3.74,-2.64l-2.8 0c0.54,4.42 4.38,4.96 6.35,4.96 7.68,0 7.71,-5.97 7.71,-8.35l0 -15.24zm19.95 5.3c0,-4.73 -3.24,-5.77 -5.81,-5.77 -2.67,0 -4.07,1.65 -4.86,2.69l-0.06 0 0 -8.41 -2.8 0 0 22.79 2.8 0 0 -9.04c0,-4.19 2.35,-5.53 4.63,-5.53 2.67,0 3.3,1.46 3.3,3.72l0 10.85 2.8 0 0 -11.3zm12.76 -2.98l0 -2.32 -2.66 0 0 -4.63 -2.8 0 0 4.63 -2.25 0 0 2.32 2.25 0 0 10.95c0,2 0.61,3.56 3.37,3.56 0.28,0 1.08,-0.13 2.09,-0.23l0 -2.19 -0.98 0c-0.57,0 -1.68,0 -1.68,-1.3l0 -10.79 2.66 0zm26.23 2.41c0,-0.82 -0.41,-5.2 -6.35,-5.2 -3.27,0 -6.28,1.65 -6.28,5.3 0,2.28 1.52,3.46 3.84,4.03l3.23 0.79c2.38,0.6 3.3,1.05 3.3,2.38 0,1.84 -1.8,2.64 -3.8,2.64 -3.94,0 -4.32,-2.1 -4.42,-3.4l-2.69 0c0.09,2 0.57,5.81 7.14,5.81 3.74,0 6.57,-2.06 6.57,-5.49 0,-2.26 -1.21,-3.53 -4.67,-4.38l-2.79 -0.7c-2.16,-0.54 -3.02,-0.86 -3.02,-2.22 0,-2.07 2.45,-2.35 3.3,-2.35 3.53,0 3.91,1.74 3.94,2.79l2.7 0zm12.23 8.79l-0.07 0 -4.41 -13.52 -3.17 0 6.15 17.05c-1.33,3.43 -1.49,3.84 -2.95,3.84 -0.76,0 -1.33,-0.16 -1.68,-0.29l0 2.57c0.44,0.1 0.76,0.23 1.17,0.23 3.59,0 3.88,-0.38 6.51,-7.11 2.13,-5.43 4.03,-10.86 5.97,-16.29l-3.08 0 -4.44 13.52zm24.6 -8.79c0,-0.82 -0.41,-5.2 -6.35,-5.2 -3.26,0 -6.28,1.65 -6.28,5.3 0,2.28 1.52,3.46 3.84,4.03l3.24 0.79c2.38,0.6 3.3,1.05 3.3,2.38 0,1.84 -1.81,2.64 -3.81,2.64 -3.94,0 -4.32,-2.1 -4.41,-3.4l-2.7 0c0.1,2 0.57,5.81 7.14,5.81 3.75,0 6.57,-2.06 6.57,-5.49 0,-2.26 -1.2,-3.53 -4.66,-4.38l-2.8 -0.7c-2.16,-0.54 -3.01,-0.86 -3.01,-2.22 0,-2.07 2.44,-2.35 3.3,-2.35 3.52,0 3.9,1.74 3.93,2.79l2.7 0zm12.39 -2.41l0 -2.32 -2.67 0 0 -4.63 -2.79 0 0 4.63 -2.25 0 0 2.32 2.25 0 0 10.95c0,2 0.6,3.56 3.36,3.56 0.29,0 1.08,-0.13 2.1,-0.23l0 -2.19 -0.98 0c-0.58,0 -1.69,0 -1.69,-1.3l0 -10.79 2.67 0zm16.58 9.08c-0.1,1.24 -1.65,3.27 -4.29,3.27 -3.21,0 -4.82,-2 -4.82,-5.46l12.12 0c0,-5.88 -2.35,-9.68 -7.14,-9.68 -5.49,0 -7.97,4.09 -7.97,9.23 0,4.8 2.76,8.32 7.43,8.32 2.67,0 3.74,-0.64 4.51,-1.14 2.09,-1.4 2.85,-3.75 2.95,-4.54l-2.79 0zm-9.11 -4.41c0,-2.58 2.03,-4.96 4.6,-4.96 3.39,0 4.47,2.38 4.63,4.96l-9.23 0zm18 9.61l2.79 0 0 -9.04c0,-4.51 2.8,-5.53 4.38,-5.53 2.07,0 2.61,1.69 2.61,3.08l0 11.49 2.79 0 0 -10.12c0,-2.22 1.56,-4.45 3.91,-4.45 2.38,0 3.07,1.56 3.07,3.84l0 10.73 2.8 0 0 -11.49c0,-4.66 -3.37,-5.58 -5.14,-5.58 -2.58,0 -3.69,1.14 -5.08,2.69 -0.48,-0.89 -1.43,-2.69 -4.42,-2.69 -2.98,0 -4.41,1.93 -5.01,2.82l-0.07 0 0 -2.35 -2.63 0 0 16.6zm41.11 -11.87c0,-0.82 -0.41,-5.2 -6.34,-5.2 -3.27,0 -6.29,1.65 -6.29,5.3 0,2.28 1.52,3.46 3.84,4.03l3.24 0.79c2.38,0.6 3.3,1.05 3.3,2.38 0,1.84 -1.81,2.64 -3.81,2.64 -3.93,0 -4.32,-2.1 -4.41,-3.4l-2.7 0c0.1,2 0.57,5.81 7.14,5.81 3.75,0 6.57,-2.06 6.57,-5.49 0,-2.26 -1.2,-3.53 -4.66,-4.38l-2.8 -0.7c-2.15,-0.54 -3.01,-0.86 -3.01,-2.22 0,-2.07 2.44,-2.35 3.3,-2.35 3.52,0 3.9,1.74 3.94,2.79l2.69 0z"/>
   <path class="fil1" d="M10.91 242.86l231.95 0 0 -231.95 -231.95 0 0 231.95zm242.86 10.91l-253.77 0 0 -253.77 253.77 0 0 253.77z"/>
  </g>
 </g>
</svg>
