<svg xmlns="http://www.w3.org/2000/svg" width="81" height="81" viewBox="0 0 81 81">
  <path id="loading" class="cls-1" d="M894.5,2439.18a2.272,2.272,0,0,0-2.269,2.27v10.28a2.269,2.269,0,1,0,4.538,0v-10.28A2.272,2.272,0,0,0,894.5,2439.18Zm0-66.18a2.272,2.272,0,0,0-2.269,2.27v10.28a2.269,2.269,0,1,0,4.538,0v-10.28A2.272,2.272,0,0,0,894.5,2373Zm-12.841,62.74a2.28,2.28,0,0,0-3.1.83l-5.139,8.9a2.267,2.267,0,0,0,.83,3.1,2.226,2.226,0,0,0,1.132.31,2.268,2.268,0,0,0,1.967-1.14l5.14-8.9A2.271,2.271,0,0,0,881.659,2435.74Zm33.091-57.31a2.261,2.261,0,0,0-3.1.83l-5.14,8.9a2.271,2.271,0,0,0,.83,3.1,2.324,2.324,0,0,0,1.133.3,2.26,2.26,0,0,0,1.967-1.13l5.139-8.9A2.267,2.267,0,0,0,914.75,2378.43Zm-42.492,47.91a2.271,2.271,0,0,0-3.1-.83l-8.9,5.14a2.266,2.266,0,0,0,1.137,4.23,2.214,2.214,0,0,0,1.132-.3l8.9-5.14A2.268,2.268,0,0,0,872.258,2426.34Zm57.316-33.09a2.261,2.261,0,0,0-3.1-.83l-8.9,5.14a2.266,2.266,0,0,0,1.137,4.23,2.317,2.317,0,0,0,1.132-.3l8.9-5.14A2.268,2.268,0,0,0,929.574,2393.25Zm-63.026,17.98H856.269a2.27,2.27,0,0,0,0,4.54h10.28A2.27,2.27,0,0,0,866.548,2411.23Zm66.183,0h-10.28a2.27,2.27,0,0,0,0,4.54h10.28A2.27,2.27,0,0,0,932.731,2411.23Zm-61.3-13.67-8.9-5.14a2.269,2.269,0,0,0-2.269,3.93l8.9,5.14a2.214,2.214,0,0,0,1.132.3A2.266,2.266,0,0,0,871.427,2397.56Zm57.317,33.09-8.9-5.14a2.269,2.269,0,0,0-2.269,3.93l8.9,5.14a2.214,2.214,0,0,0,1.132.3A2.266,2.266,0,0,0,928.744,2430.65Zm-46.255-42.49-5.14-8.9a2.269,2.269,0,1,0-3.929,2.27l5.139,8.9a2.26,2.26,0,0,0,1.967,1.13,2.324,2.324,0,0,0,1.133-.3A2.271,2.271,0,0,0,882.489,2388.16Zm33.091,57.31-5.139-8.9a2.269,2.269,0,1,0-3.93,2.27l5.14,8.9a2.267,2.267,0,0,0,1.967,1.14,2.229,2.229,0,0,0,1.132-.31A2.267,2.267,0,0,0,915.58,2445.47ZM894.5,2373a2.272,2.272,0,0,0-2.269,2.27v10.28a2.269,2.269,0,1,0,4.538,0v-10.28A2.272,2.272,0,0,0,894.5,2373Zm0,66.18a2.272,2.272,0,0,0-2.269,2.27v10.28a2.269,2.269,0,1,0,4.538,0v-10.28A2.272,2.272,0,0,0,894.5,2439.18Z" transform="translate(-854 -2373)"/>
</svg>
