<?xml version="1.0" standalone="no"?>
<!DOCTYPE svg PUBLIC "-//W3C//DTD SVG 20010904//EN"
 "http://www.w3.org/TR/2001/REC-SVG-20010904/DTD/svg10.dtd">
<svg version="1.0" xmlns="http://www.w3.org/2000/svg"
 width="110.000000pt" height="110.000000pt" viewBox="0 0 110.000000 110.000000"
 preserveAspectRatio="xMidYMid meet">
<metadata>
Created by potrace 1.11, written by Peter Selinger 2001-2013
</metadata>
<g transform="translate(0.000000,110.000000) scale(0.100000,-0.100000)"
fill="#000000" stroke="none">
<path d="M0 550 l0 -550 550 0 550 0 0 550 0 550 -550 0 -550 0 0 -550z m1038
500 c9 0 12 -107 12 -502 l0 -503 -500 3 -500 2 0 53 c-1 84 -1 921 0 934 0 9
35 13 123 15 90 2 730 1 865 -2z"/>
<path d="M512 607 c-17 -18 -19 -26 -10 -35 7 -7 17 -12 23 -12 12 0 51 38 44
43 -2 1 -11 8 -20 15 -13 10 -20 8 -37 -11z"/>
<path d="M624 529 c-17 -5 -39 -18 -49 -29 -18 -20 -41 -28 -31 -11 10 16 -5
41 -25 41 -13 0 -19 -7 -20 -22 -1 -28 -1 -238 0 -256 1 -8 10 -12 24 -10 16
2 21 9 20 26 l-3 23 33 -25 c61 -47 141 -46 197 0 l30 26 0 -26 c0 -21 5 -26
26 -26 25 0 25 1 24 78 -1 42 -1 82 0 87 0 6 21 -29 45 -76 42 -83 67 -106 93
-90 10 6 14 80 13 224 -1 65 -2 68 -23 65 -22 -3 -23 -7 -22 -100 0 -54 -1
-98 -3 -98 -1 0 -25 45 -53 100 -43 86 -54 100 -75 100 -21 0 -25 -5 -25 -30
l0 -31 -27 26 c-16 14 -37 28 -48 30 -46 11 -72 12 -101 4z m94 -53 c95 -49
60 -196 -47 -196 -110 0 -146 153 -46 196 39 17 60 17 93 0z"/>
<path d="M102 406 c3 -116 5 -126 27 -150 35 -38 92 -36 132 3 16 16 30 40 31
53 0 13 2 28 3 33 2 6 3 24 4 40 1 26 7 19 45 -55 33 -64 50 -86 69 -91 14 -4
28 -4 31 -1 3 3 6 70 6 149 0 144 0 144 -22 141 -22 -3 -23 -7 -23 -100 0 -54
-2 -98 -5 -98 -3 0 -26 45 -52 100 -41 89 -50 100 -72 100 -18 0 -26 -6 -27
-17 0 -10 -1 -59 -2 -109 -3 -96 -14 -124 -48 -124 -36 0 -51 43 -52 150 -1
98 -1 100 -25 100 l-24 0 4 -124z"/>
<path d="M100 190 c-3 -8 -3 -33 0 -55 3 -22 7 -33 10 -25 3 8 3 33 0 55 -3
22 -7 33 -10 25z"/>
<path d="M271 151 c-1 -51 10 -68 13 -19 1 13 7 23 16 23 10 0 15 -9 14 -27
-1 -16 3 -28 7 -28 13 0 11 54 -2 67 -6 6 -17 9 -24 6 -7 -2 -15 4 -18 14 -3
10 -5 -6 -6 -36z"/>
<path d="M357 183 c-6 -11 4 -83 12 -83 3 0 6 18 6 39 -1 39 -9 60 -18 44z"/>
<path d="M683 148 c2 -23 7 -43 12 -45 6 -2 9 14 8 34 -2 54 -2 53 -13 53 -5
0 -8 -19 -7 -42z"/>
<path d="M195 167 c-25 -19 -16 -60 15 -67 15 -4 20 -9 13 -13 -6 -4 -19 -4
-29 0 -12 4 -15 3 -10 -5 9 -15 43 -16 51 -1 4 6 8 26 9 46 2 41 -21 60 -49
40z m32 -23 c8 -21 -13 -42 -28 -27 -13 13 -5 43 11 43 6 0 13 -7 17 -16z"/>
<path d="M450 165 c-14 -16 -5 -35 16 -35 8 0 14 -5 14 -11 0 -6 -9 -8 -22 -3
-20 6 -21 5 -9 -9 10 -13 18 -14 32 -6 25 13 24 23 -3 43 l-23 17 23 -6 c27
-8 29 1 3 14 -14 8 -22 7 -31 -4z"/>
<path d="M610 165 c-14 -16 -5 -35 16 -35 8 0 14 -5 14 -11 0 -6 -9 -8 -22 -4
-22 6 -23 6 -3 -10 17 -14 21 -14 35 0 13 14 13 18 -10 36 -24 20 -24 20 -2
14 27 -8 29 1 3 14 -14 8 -22 7 -31 -4z"/>
<path d="M748 169 c-37 -21 -10 -86 30 -72 20 7 14 22 -7 16 -10 -3 -22 0 -25
6 -5 7 2 11 18 11 32 0 40 14 20 34 -8 9 -16 16 -17 16 -1 0 -10 -5 -19 -11z
m32 -19 c0 -5 -7 -10 -15 -10 -8 0 -15 5 -15 10 0 6 7 10 15 10 8 0 15 -4 15
-10z"/>
<path d="M838 172 c-13 -3 -18 -13 -18 -39 0 -20 3 -33 8 -29 4 4 7 17 7 28 0
12 6 23 13 26 8 2 12 -7 12 -27 0 -17 4 -31 9 -31 5 0 9 11 9 25 0 14 2 29 6
32 10 10 19 -4 19 -32 0 -14 3 -25 8 -25 14 0 11 58 -3 66 -13 9 -44 11 -70 6z"/>
<path d="M950 164 c-14 -15 -5 -34 15 -34 8 0 17 -5 21 -11 5 -9 -1 -10 -22
-5 -27 6 -28 5 -11 -8 21 -16 47 -11 47 9 0 7 -10 20 -22 29 l-23 17 23 -5
c27 -5 30 10 2 17 -10 3 -24 -1 -30 -9z"/>
<path d="M140 135 c0 -19 4 -35 8 -35 4 0 8 16 8 35 0 19 -4 35 -8 35 -4 0 -8
-16 -8 -35z"/>
<path d="M520 161 c0 -6 5 -21 11 -35 10 -20 9 -29 -2 -42 -12 -15 -12 -17 0
-13 15 5 20 12 45 67 8 18 10 32 4 32 -5 0 -12 -9 -15 -20 -6 -23 -23 -27 -23
-6 0 8 -4 18 -10 21 -5 3 -10 2 -10 -4z"/>
</g>
</svg>
